<?xml version="1.0" standalone="no"?>
<!DOCTYPE svg PUBLIC "-//W3C//DTD SVG 20010904//EN"
 "http://www.w3.org/TR/2001/REC-SVG-20010904/DTD/svg10.dtd">
<svg version="1.0" xmlns="http://www.w3.org/2000/svg"
 width="300.000000pt" height="300.000000pt" viewBox="0 0 300.000000 300.000000"
 preserveAspectRatio="xMidYMid meet">
<metadata>
Created by potrace 1.10, written by Peter Selinger 2001-2011
</metadata>
<g transform="translate(0.000000,300.000000) scale(0.100000,-0.100000)"
fill="#000000" stroke="none">
<path d="M239 2501 c-43 -34 -46 -81 -9 -157 48 -100 60 -186 69 -509 8 -275
10 -294 34 -364 38 -109 105 -168 207 -181 l45 -6 -38 -18 c-89 -44 -132 -142
-125 -285 5 -98 18 -130 106 -255 200 -285 324 -314 514 -123 122 123 250 315
288 432 10 33 19 55 19 49 1 -7 26 -73 57 -148 l57 -137 37 36 c29 28 50 68
91 172 l53 135 18 -71 c32 -130 157 -327 297 -469 189 -190 313 -160 513 124
88 125 101 157 106 255 7 143 -36 241 -125 285 l-38 18 45 6 c102 13 169 72
207 181 24 70 26 89 34 364 9 323 21 409 69 509 25 51 30 71 24 100 -21 112
-160 98 -380 -40 l-72 -44 -179 0 -179 0 -218 -547 c-121 -302 -222 -551 -225
-555 -3 -4 -106 244 -228 550 l-223 557 -215 -3 -216 -3 -72 45 c-170 106
-294 140 -348 97z m29 -25 c-10 -7 -18 -25 -18 -40 0 -15 -4 -25 -10 -21 -21
13 8 75 34 75 6 0 3 -7 -6 -14z m85 8 c19 -7 10 -42 -14 -55 -14 -7 -17 -6
-14 4 3 7 -4 23 -15 35 l-21 22 25 0 c13 0 31 -3 39 -6z m2340 -9 c-13 -9 -23
-23 -23 -31 0 -26 -25 -9 -27 17 -1 22 3 25 35 27 36 3 37 2 15 -13z m68 -23
c7 -17 6 -29 -1 -36 -7 -7 -10 -3 -10 13 0 12 -5 32 -11 43 -8 15 -8 19 1 13
6 -4 16 -18 21 -33z m-2320 -3 c44 -19 64 -39 39 -39 -16 0 -100 43 -100 52 0
12 6 10 61 -13z m2179 13 c0 -9 -84 -52 -100 -52 -25 0 -6 19 38 38 52 24 62
26 62 14z m-2320 -23 c0 -18 -2 -19 -15 -9 -8 7 -15 16 -15 21 0 5 7 9 15 9 9
0 15 -9 15 -21z m2430 12 c0 -5 -7 -14 -15 -21 -13 -10 -15 -9 -15 9 0 12 6
21 15 21 8 0 15 -4 15 -9z m-2336 -56 c15 -39 -22 -58 -59 -31 -16 12 -17 16
-6 30 17 20 57 21 65 1z m282 -93 c31 -24 53 -46 50 -49 -3 -3 -22 8 -43 24
-21 17 -65 47 -98 68 -33 21 -63 43 -67 49 -5 7 -8 5 -8 -6 0 -9 7 -24 16 -32
14 -15 14 -18 -8 -36 -28 -24 -26 -24 -69 3 -35 22 -39 36 -16 65 7 9 13 9 23
1 11 -9 19 -8 36 3 20 13 27 12 76 -16 29 -17 78 -50 108 -74z m1869 88 c19 7
24 4 34 -17 12 -26 3 -42 -23 -43 -5 0 -18 -8 -28 -17 -18 -16 -20 -15 -41 5
-18 19 -20 25 -9 42 13 21 17 54 4 34 -4 -6 -34 -28 -67 -49 -33 -21 -77 -51
-98 -68 -21 -16 -40 -27 -43 -24 -7 7 71 69 146 115 57 34 67 38 84 26 12 -8
26 -10 41 -4z m126 4 c11 -14 10 -18 -6 -30 -10 -8 -24 -14 -31 -14 -18 0 -35
26 -28 44 8 21 48 21 65 0z m-2383 -12 c3 -9 -2 -13 -14 -10 -9 1 -19 9 -22
16 -3 9 2 13 14 10 9 -1 19 -9 22 -16z m2462 8 c0 -12 -28 -25 -36 -17 -9 9 6
27 22 27 8 0 14 -5 14 -10z m-2422 -59 c3 -8 -1 -12 -9 -9 -7 2 -15 10 -17 17
-3 8 1 12 9 9 7 -2 15 -10 17 -17z m2372 10 c0 -12 -20 -25 -27 -18 -7 7 6 27
18 27 5 0 9 -4 9 -9z m-1530 -248 c55 -134 96 -243 93 -243 -3 0 -1 -6 5 -12
5 -7 60 -139 121 -293 62 -154 119 -289 127 -300 11 -15 18 -17 32 -9 10 6
105 230 229 540 116 291 215 535 220 543 7 11 38 15 129 18 65 1 134 0 153 -3
l34 -5 -69 -65 c-68 -64 -68 -64 -48 -84 20 -20 20 -20 56 12 65 59 68 60 68
45 0 -8 7 -20 15 -27 14 -12 13 -16 -6 -36 -17 -18 -25 -21 -36 -13 -17 14
-62 -3 -93 -36 -17 -18 -21 -33 -19 -76 0 -30 1 -97 1 -149 0 -52 0 -102 0
-110 1 -8 0 -42 0 -75 -1 -33 -1 -71 -1 -85 0 -14 0 -63 0 -110 -1 -96 10
-116 69 -124 19 -2 58 -7 87 -11 43 -6 57 -4 86 14 18 11 42 36 52 54 11 21
29 37 49 43 22 7 33 17 40 41 7 27 12 32 31 27 13 -3 33 -1 44 6 19 10 21 8
21 -17 0 -50 -34 -126 -75 -170 -31 -32 -54 -45 -104 -59 -35 -10 -65 -24 -68
-31 -7 -17 -22 -17 -42 1 -21 19 -137 48 -161 41 -25 -8 -34 -38 -30 -110 1
-33 3 -95 4 -137 1 -73 3 -79 36 -115 19 -20 42 -43 50 -49 8 -7 12 -15 9 -18
-7 -8 -358 -10 -366 -2 -4 4 17 30 46 60 l52 53 -1 84 c-1 46 -1 119 -1 162 0
64 -4 80 -18 89 -17 10 -17 12 0 29 16 16 19 36 20 112 1 50 1 95 0 99 -2 15
-2 68 -1 180 1 68 -3 125 -10 138 -10 18 -13 19 -38 6 -15 -8 -34 -22 -43 -32
-20 -24 -119 -275 -119 -303 0 -12 -4 -21 -8 -21 -5 0 -21 -32 -37 -71 -22
-58 -26 -76 -16 -90 12 -20 15 -36 4 -26 -10 11 -53 -34 -53 -54 0 -10 -11
-39 -25 -65 -14 -26 -23 -55 -20 -65 3 -9 -4 -27 -16 -40 -11 -14 -41 -76 -66
-139 -43 -110 -79 -169 -94 -153 -3 5 -25 55 -49 113 -23 58 -50 114 -59 125
-10 11 -18 33 -19 49 -1 15 -11 45 -21 65 -11 20 -25 54 -32 76 -6 22 -23 52
-37 67 -14 16 -22 33 -19 42 7 17 -47 161 -69 187 -8 8 -14 23 -14 32 0 24
-114 294 -134 315 -9 10 -13 22 -9 25 3 4 -5 20 -20 35 -17 18 -25 34 -21 48
8 29 -19 50 -37 28 -10 -12 -10 -20 -2 -34 8 -12 8 -21 1 -28 -14 -14 -18
-303 -4 -321 7 -9 7 -15 1 -18 -12 -4 -13 -233 -1 -251 4 -7 24 -21 44 -32 34
-18 35 -19 12 -20 -14 0 -33 -7 -42 -14 -20 -15 -24 -52 -7 -58 9 -3 9 -9 1
-25 -15 -26 -22 -222 -9 -248 5 -11 30 -41 55 -67 25 -26 44 -49 41 -50 -2 -2
-73 -2 -157 0 l-154 3 54 57 54 57 2 150 c2 140 1 151 -18 162 -15 10 -32 10
-72 2 -90 -19 -114 -35 -140 -88 -19 -39 -28 -48 -50 -49 -35 -1 -36 12 -2 35
55 38 67 54 53 69 -8 7 -29 16 -48 19 -87 15 -160 81 -186 167 -14 48 -20 98
-11 98 2 0 16 -7 32 -15 20 -10 32 -11 41 -4 9 8 14 4 19 -18 9 -39 23 -53 50
-53 14 0 25 -8 29 -19 10 -33 82 -91 113 -91 50 1 163 27 177 41 12 12 22 142
15 194 -1 6 -1 119 -1 252 l0 242 -30 25 c-17 14 -35 27 -40 27 -5 1 -15 2
-21 3 -7 1 -18 -1 -24 -6 -6 -4 -19 2 -32 15 -20 21 -20 23 -2 45 10 12 21 22
25 22 4 0 25 -18 47 -41 l41 -41 21 22 21 21 -30 25 c-34 27 -36 30 -76 72
-37 38 -42 37 179 37 l174 0 98 -242z m-874 212 c4 -8 15 -15 25 -15 25 0 24
-26 -1 -40 -15 -8 -21 -8 -25 2 -2 7 -9 25 -14 41 -7 18 -7 27 0 27 5 0 12 -7
15 -15z m2419 -17 c-10 -45 -13 -49 -33 -37 -25 16 -26 49 -2 49 10 0 22 5 25
10 12 20 16 9 10 -22z m-2257 2 c37 -22 44 -60 12 -60 -27 0 -110 42 -110 55
0 31 50 34 98 5z m142 -3 c44 -21 61 -50 43 -68 -21 -21 -123 44 -123 78 0 19
29 15 80 -10z m1880 10 c0 -34 -102 -99 -123 -78 -18 18 -1 47 43 68 51 25 80
29 80 10z m158 -7 c2 -10 -14 -24 -43 -38 -58 -28 -85 -29 -85 -2 0 44 120 81
128 40z m-2250 -88 c-5 -24 -23 -24 -49 -3 -20 17 -21 22 -10 30 19 12 63 -8
59 -27z m134 16 c-7 -7 -12 -8 -12 -2 0 14 12 26 19 19 2 -3 -1 -11 -7 -17z
m278 -29 c0 -17 -15 -8 -40 24 l-25 32 33 -23 c17 -13 32 -28 32 -33z m1435
21 c-16 -16 -31 -27 -34 -24 -5 5 48 54 58 54 3 0 -8 -13 -24 -30z m255 10 c0
-5 -7 -7 -15 -4 -8 4 -12 10 -9 15 6 11 24 2 24 -11z m190 -1 c0 -14 -48 -41
-60 -34 -17 11 -11 31 13 42 23 11 47 7 47 -8z m-94 -7 c-3 -5 2 -19 11 -31
15 -23 33 -24 76 -6 13 6 17 2 17 -18 0 -44 -8 -54 -40 -49 -21 3 -32 -1 -36
-12 -9 -24 -19 -19 -32 18 -7 18 -21 41 -32 51 -25 23 -25 35 -1 35 11 0 23 5
26 10 3 6 8 10 11 10 3 0 3 -4 0 -8z m-2162 -13 c-5 -8 -1 -8 14 0 30 16 39
-5 14 -32 -11 -12 -27 -37 -37 -56 l-17 -33 -22 21 c-18 17 -25 18 -34 9 -16
-16 -32 5 -32 44 l0 27 41 -14 41 -15 11 30 c6 17 15 30 20 30 4 0 5 -5 1 -11z
m225 -38 c17 -12 34 -34 37 -49 3 -15 8 -33 10 -41 2 -8 -2 -24 -10 -36 -14
-22 -16 -22 -83 -9 -37 7 -89 13 -115 14 -26 0 -50 5 -53 11 -4 6 0 30 10 55
34 90 122 113 204 55z m1863 7 c28 -19 65 -99 53 -117 -3 -6 -30 -11 -58 -11
-29 -1 -80 -7 -115 -14 -61 -13 -63 -13 -78 9 -8 12 -12 28 -10 36 2 8 7 26
10 41 10 46 97 92 151 80 11 -3 32 -13 47 -24z m-1752 -43 c26 -13 30 -21 30
-56 0 -41 0 -41 -32 -34 -18 4 -33 8 -34 9 -1 0 -4 22 -7 49 -7 52 -2 55 43
32z m1523 -32 c-3 -27 -6 -49 -7 -49 -1 -1 -16 -5 -33 -9 -33 -7 -33 -7 -33
34 0 34 4 43 28 55 46 26 52 21 45 -31z m-1909 -26 c8 -12 7 -20 -2 -29 -11
-11 -16 -10 -27 5 -15 20 -9 50 8 44 6 -2 15 -11 21 -20z m2289 11 c5 -16 -10
-48 -24 -48 -16 0 -22 29 -9 45 15 18 27 19 33 3z m-1710 -28 c3 -11 1 -20 -4
-20 -5 0 -9 9 -9 20 0 11 2 20 4 20 2 0 6 -9 9 -20z m-177 -40 c11 0 14 -23
14 -105 0 -100 -1 -105 -19 -96 -14 8 -19 26 -24 77 -3 45 -12 75 -26 95 -28
38 -27 43 10 35 17 -3 38 -6 45 -6z m1524 5 c0 -3 -9 -19 -21 -34 -14 -20 -23
-50 -26 -95 -5 -51 -10 -69 -24 -77 -18 -9 -19 -4 -19 95 l0 105 28 4 c45 7
62 7 62 2z m379 -12 c0 -10 -4 -27 -8 -38 -8 -19 -8 -19 -18 0 -16 29 -16 37
-1 46 20 13 28 11 27 -8z m-2324 -11 c-3 -7 -5 -20 -5 -29 0 -26 -25 -7 -26
20 -1 19 4 25 18 24 11 -1 16 -7 13 -15z m255 8 c25 -6 54 -12 66 -15 11 -2
26 -16 32 -30 15 -32 16 -132 2 -140 -17 -10 -190 -35 -247 -35 -65 0 -71 10
-80 119 -8 113 -10 111 94 111 48 0 108 -5 133 -10z m2004 -86 c-2 -120 -10
-134 -77 -134 -57 0 -230 25 -247 35 -14 8 -13 108 2 140 6 14 21 28 32 30 12
3 39 9 61 14 22 5 83 9 135 8 l95 -2 -1 -91z m-1628 39 c-8 -8 -46 22 -46 36
0 10 8 7 25 -9 14 -13 23 -25 21 -27z m82 -193 c34 -84 58 -150 54 -148 -64
32 -133 60 -154 65 l-28 6 0 133 0 133 33 -19 c28 -17 41 -40 95 -170z m-713
140 c-6 -9 -9 -9 -16 1 -10 17 0 34 13 21 6 -6 7 -16 3 -22z m2308 4 c-4 -10
-9 -12 -15 -6 -12 12 -1 35 12 27 5 -3 6 -13 3 -21z m-678 -124 l0 -120 -38
-15 c-20 -8 -56 -27 -78 -41 -23 -14 -43 -24 -45 -22 -2 2 22 64 52 138 48
118 84 180 103 180 3 0 6 -54 6 -120z m-1637 29 c-10 -6 -14 0 -16 23 -2 18 2
34 10 39 10 6 14 0 16 -23 2 -18 -2 -34 -10 -39z m2327 -6 c-1 -1 -10 0 -21 3
-16 4 -20 11 -16 32 8 44 26 46 32 4 3 -20 5 -38 5 -39z m-2298 -29 c7 -18
-17 -38 -31 -24 -11 11 -1 40 14 40 6 0 13 -7 17 -16z m397 10 c12 -5 16 -21
16 -74 l0 -67 -107 -13 c-210 -24 -206 -24 -240 4 -17 14 -36 39 -43 56 -19
46 2 62 87 68 37 2 102 10 143 17 89 15 123 17 144 9z m1589 -8 c50 -8 120
-17 155 -19 80 -5 101 -22 82 -67 -7 -17 -26 -42 -43 -56 -34 -28 -30 -28
-239 -4 l-108 13 0 68 c0 88 1 88 153 65z m294 -2 c8 -20 -8 -36 -26 -25 -15
10 -8 41 9 41 6 0 13 -7 17 -16z m20 -62 c1 -15 0 -37 -2 -49 -5 -20 -8 -21
-25 -10 -25 15 -22 46 5 69 11 10 20 17 20 18 0 0 1 -12 2 -28z m-2307 -7 c0
-8 3 -21 7 -31 4 -11 3 -15 -4 -11 -6 4 -17 0 -24 -9 -12 -14 -14 -14 -19 1
-3 10 -4 30 -2 45 3 21 8 27 23 23 10 -3 19 -11 19 -18z m695 -95 l80 -39 36
-85 36 -86 -101 0 c-55 0 -118 3 -138 6 l-38 7 0 124 c0 145 -11 139 125 73z
m-664 9 c8 -16 8 -24 -1 -33 -9 -8 -16 -5 -31 13 -10 12 -16 27 -13 32 9 16
33 10 45 -12z m1584 -99 l0 -120 -111 0 c-61 0 -113 2 -116 6 -3 3 6 34 20 70
l26 65 90 49 c50 28 91 50 91 50 0 0 0 -54 0 -120z m659 111 c3 -5 -3 -20 -13
-32 -15 -18 -22 -21 -31 -13 -9 9 -9 17 -1 33 12 22 36 28 45 12z m-1854 -104
l0 -92 -87 -17 -88 -16 -35 28 c-61 48 -66 126 -10 155 16 8 69 19 117 24 49
4 91 9 96 10 4 0 7 -41 7 -92z m1544 78 c38 -3 81 -12 97 -21 55 -28 49 -107
-11 -154 l-35 -28 -87 16 -88 17 0 92 0 93 28 -5 c15 -2 58 -7 96 -10z m-1822
-20 c10 -10 -5 -57 -19 -62 -18 -7 -29 4 -37 40 -6 25 -4 27 22 27 16 0 31 -2
34 -5z m2032 -22 c-8 -36 -19 -47 -37 -40 -14 5 -29 52 -19 62 3 3 18 5 34 5
26 0 28 -2 22 -27z m-1329 -219 c-28 -21 -77 -32 -182 -40 -78 -5 -93 -4 -93
8 0 11 24 18 98 27 53 6 108 13 122 15 14 2 36 4 50 4 24 1 24 1 5 -14z m745
-4 c14 -3 26 -14 28 -23 3 -15 -3 -17 -55 -11 -77 8 -124 20 -148 38 -18 14
-11 15 65 9 47 -3 96 -9 110 -13z m-188 -16 c17 -14 43 -27 57 -30 14 -3 55
-29 90 -57 l63 -52 0 -83 c1 -81 0 -84 -30 -115 l-32 -31 -50 54 c-59 65 -120
164 -146 237 -14 42 -15 57 -6 78 14 31 17 31 54 -1z m-509 -36 l17 -41 -36
-74 c-35 -70 -112 -168 -176 -221 l-29 -25 -50 49 c-47 47 -49 50 -49 105 0
55 1 58 35 78 20 11 67 46 104 76 38 30 74 55 82 55 8 0 28 9 44 19 17 11 32
20 35 20 3 1 13 -18 23 -41z m-473 -47 l0 -80 -52 -11 c-69 -15 -128 -10 -142
13 -9 13 -6 27 14 65 24 45 28 48 100 69 41 12 76 22 78 22 1 1 2 -35 2 -78z
m1576 28 c6 -5 19 -27 29 -50 14 -30 16 -45 8 -57 -13 -22 -69 -26 -138 -12
l-55 11 0 79 0 79 72 -20 c40 -11 78 -25 84 -30z m-1276 8 c0 -5 -136 -107
-143 -107 -13 0 -7 66 9 88 13 19 24 22 75 22 32 0 59 -1 59 -3z m898 -27 c1
-37 -4 -37 -48 0 l-34 30 40 0 c39 0 41 -2 42 -30z m485 -28 c24 -21 21 -31
-11 -30 -22 1 -31 8 -44 39 l-16 38 26 -16 c15 -9 35 -23 45 -31z m-709 -116
c14 -25 52 -73 83 -106 l56 -61 -33 -34 -34 -35 71 0 70 0 77 -80 c82 -86 92
-114 56 -150 -15 -15 -33 -20 -72 -20 -49 0 -54 2 -97 50 -70 77 -168 217
-206 295 -44 90 -73 227 -56 270 l12 30 23 -57 c13 -31 35 -77 50 -102z m-455
66 c25 -75 -24 -199 -142 -364 -35 -49 -83 -110 -108 -138 -43 -48 -48 -50
-97 -50 -39 0 -57 5 -72 20 -36 36 -26 64 56 150 68 71 81 80 112 80 34 0 35
1 20 17 -16 15 -12 22 62 100 54 57 89 105 112 152 18 39 36 70 39 70 3 1 11
-16 18 -37z m-810 -34 c-12 -20 -14 -21 -17 -5 -2 10 2 25 9 34 18 21 23 0 8
-29z m2021 -2 c-1 -21 -1 -21 -15 -2 -21 27 -20 53 0 36 8 -7 15 -22 15 -34z
m-1975 -5 c-7 -32 -25 -43 -25 -15 0 19 20 57 27 51 3 -3 2 -19 -2 -36z m1935
-13 c0 -25 -16 -22 -24 5 -11 41 -7 54 9 33 8 -11 15 -28 15 -38z m-1906 -23
c-23 -36 -29 -24 -8 17 9 18 19 28 21 21 2 -6 -3 -23 -13 -38z m216 18 c-1
-23 -12 -36 -63 -70 -81 -55 -92 -58 -122 -39 -49 32 -19 105 44 107 27 1 121
19 139 28 1 0 2 -11 2 -26z m1566 -3 c58 0 85 -75 39 -106 -30 -19 -41 -16
-122 39 -50 33 -62 47 -63 68 l0 26 58 -13 c31 -8 71 -14 88 -14z m91 -33 c-1
-5 -11 2 -20 17 -10 15 -15 31 -11 37 7 12 36 -39 31 -54z m-1953 22 c14 -7
23 -15 21 -20 -6 -8 -55 12 -55 24 0 10 5 9 34 -4z m2045 -3 c-2 -2 -18 -7
-34 -10 l-30 -6 30 14 c26 12 46 14 34 2z m-2053 -41 c8 -20 -4 -65 -16 -65
-12 0 -24 45 -16 65 7 19 25 19 32 0z m2059 -25 c0 -18 -5 -35 -12 -37 -14 -5
-28 40 -19 63 10 27 31 9 31 -26z m-1995 -5 c0 -24 -5 -35 -15 -35 -10 0 -15
11 -15 35 0 24 5 35 15 35 10 0 15 -11 15 -35z m163 -79 l-78 -77 178 3 c97 2
177 1 176 -2 -1 -3 -32 -33 -70 -67 -66 -61 -70 -63 -121 -63 -86 0 -198 79
-198 138 0 26 43 74 114 127 57 42 72 49 74 35 2 -10 -27 -47 -75 -94z m1571
60 c73 -54 116 -101 116 -128 0 -59 -112 -138 -198 -138 -51 0 -55 2 -121 63
-38 34 -69 64 -70 67 -1 3 79 4 176 2 l178 -3 -77 73 c-42 40 -79 83 -81 96
-3 12 -3 22 -1 22 3 0 38 -24 78 -54z m196 19 c0 -24 -5 -35 -15 -35 -10 0
-15 11 -15 35 0 24 5 35 15 35 10 0 15 -11 15 -35z m-1880 -50 c6 -8 9 -19 5
-25 -7 -11 -34 15 -35 33 0 12 17 8 30 -8z m1840 9 c0 -4 -10 -15 -22 -26 -17
-14 -23 -16 -30 -6 -5 8 -1 18 9 26 18 13 43 16 43 6z m-1926 -12 c8 -13 -7
-29 -36 -36 -23 -5 -28 -3 -28 13 0 12 8 21 23 24 12 2 25 5 29 6 4 0 9 -3 12
-7z m2022 -2 c8 0 14 -9 14 -20 0 -17 -4 -19 -27 -14 -16 4 -31 12 -35 18 -10
15 2 28 19 22 8 -3 21 -6 29 -6z m-1967 -34 c7 -8 11 -27 9 -43 l-3 -28 -23
35 c-12 19 -22 38 -22 43 0 12 27 8 39 -7z m1901 7 c0 -5 -10 -24 -22 -43
l-23 -35 -3 28 c-2 16 2 35 9 43 12 15 39 19 39 7z m-1970 -33 c23 -12 43 -67
28 -76 -14 -9 -58 44 -58 69 0 20 4 21 30 7z m2030 -7 c0 -25 -44 -78 -58 -69
-22 13 20 86 50 86 4 0 8 -8 8 -17z m-1923 -105 c24 -22 30 -38 14 -38 -5 0
-19 14 -31 30 -25 35 -16 39 17 8z m1803 -8 c-20 -28 -40 -39 -40 -23 0 10 42
53 52 53 5 0 0 -13 -12 -30z m-1847 -19 c31 -53 14 -53 -23 -1 -15 22 -17 30
-8 30 8 0 21 -13 31 -29z m1897 -1 c-37 -52 -54 -52 -23 1 10 16 23 29 31 29
9 0 7 -8 -8 -30z m-1755 -42 c14 -6 24 -16 22 -22 -6 -19 -39 -12 -54 12 -17
25 -7 28 32 10z m1623 -10 c-16 -24 -49 -31 -55 -12 -4 11 31 32 56 33 11 1
11 -3 -1 -21z m-1689 -22 c16 -17 19 -26 10 -31 -7 -5 -19 2 -30 16 -33 43
-18 55 20 15z m205 1 c-3 -9 -12 -13 -20 -10 -19 7 -18 21 4 25 22 5 24 4 16
-15z m1349 13 c6 0 2 -6 -9 -14 -14 -11 -21 -11 -26 -3 -13 20 -9 30 8 23 9
-3 21 -6 27 -6z m207 3 c-1 -19 -38 -55 -49 -48 -9 5 -6 14 10 31 22 24 39 31
39 17z m-1611 -34 c30 -11 37 -19 25 -32 -9 -8 -64 21 -64 33 0 12 0 12 39 -1z
m1461 1 c0 -12 -55 -41 -64 -33 -12 12 -6 21 22 31 36 14 42 14 42 2z m-1502
-33 c15 -16 15 -17 -10 -17 -14 0 -31 -7 -38 -15 -10 -12 -6 -20 19 -45 34
-34 66 -37 85 -8 8 13 5 22 -13 42 l-23 25 23 -6 c13 -4 32 -17 41 -29 10 -12
31 -27 48 -32 25 -9 31 -8 39 6 5 10 21 18 35 20 41 3 21 -24 -39 -53 -94 -44
-159 -30 -238 51 -42 43 -45 49 -28 56 10 3 22 11 25 17 9 14 54 7 74 -12z
m1577 12 c4 -6 16 -14 26 -17 17 -7 14 -12 -25 -54 -46 -50 -102 -79 -152 -80
-34 0 -135 44 -154 68 -11 12 -8 14 20 12 18 -1 35 -8 37 -15 9 -23 54 -14 85
17 16 17 37 30 47 30 10 0 26 9 35 19 10 11 28 22 40 24 11 2 24 5 28 6 4 0
10 -4 13 -10z m-1415 -71 c0 -13 -19 -9 -45 8 -37 24 -30 36 10 17 19 -9 35
-20 35 -25z m1230 12 c-26 -20 -50 -26 -50 -12 0 10 63 42 70 35 3 -2 -6 -13
-20 -23z m-1380 -5 c17 -9 30 -18 30 -20 0 -13 -40 -3 -61 15 -29 23 -10 26
31 5z"/>
<path d="M419 1471 c-21 -16 -21 -21 -10 -49 15 -37 35 -46 62 -29 31 19 34
46 8 73 -27 29 -30 29 -60 5z m51 -41 c0 -18 -23 -34 -34 -23 -8 8 -8 48 1 56
10 10 33 -13 33 -33z"/>
<path d="M2517 1462 l-28 -29 21 -26 c26 -33 54 -34 74 -5 21 29 20 51 -2 71
-25 23 -34 21 -65 -11z m53 -26 c0 -28 -8 -36 -26 -29 -17 6 -18 35 -2 51 15
15 28 6 28 -22z"/>
<path d="M2227 614 c-39 -26 -45 -42 -25 -62 19 -19 45 -14 79 16 33 29 33 44
0 61 -13 8 -27 4 -54 -15z m44 -24 c-21 -18 -61 -28 -61 -15 0 8 54 34 70 34
10 0 8 -6 -9 -19z"/>
</g>
</svg>
